<svg width="20" height="20" viewBox="0 0 20 20" fill="none" xmlns="http://www.w3.org/2000/svg">
<g clip-path="url(#clip0_14_204)">
<path d="M9.16414 18.1035C9.41744 18.2497 9.70477 18.3267 9.99725 18.3267C10.2897 18.3267 10.5771 18.2497 10.8304 18.1035L16.6621 14.7711C16.9152 14.625 17.1253 14.4149 17.2716 14.1619C17.4178 13.909 17.4949 13.622 17.4952 13.3298V6.66491C17.4949 6.37272 17.4178 6.08575 17.2716 5.83277C17.1253 5.5798 16.9152 5.36973 16.6621 5.22364L10.8304 1.8912C10.5771 1.74496 10.2897 1.66797 9.99725 1.66797C9.70477 1.66797 9.41744 1.74496 9.16414 1.8912L3.33238 5.22364C3.07933 5.36973 2.86915 5.5798 2.72293 5.83277C2.5767 6.08575 2.49957 6.37272 2.49927 6.66491V13.3298C2.49957 13.622 2.5767 13.909 2.72293 14.1619C2.86915 14.4149 3.07933 14.625 3.33238 14.7711L9.16414 18.1035Z" stroke="#2B2A83" stroke-width="1.66622" stroke-linecap="round" stroke-linejoin="round"/>
<path d="M9.99731 18.3284V9.99731" stroke="#2B2A83" stroke-width="1.66622" stroke-linecap="round" stroke-linejoin="round"/>
<path d="M2.74097 5.83179L9.99735 9.99733L17.2537 5.83179" stroke="#2B2A83" stroke-width="1.66622" stroke-linecap="round" stroke-linejoin="round"/>
<path d="M6.24829 3.55737L13.7463 7.84789" stroke="#2B2A83" stroke-width="1.66622" stroke-linecap="round" stroke-linejoin="round"/>
</g>
<defs>
<clipPath id="clip0_14_204">
<rect width="19.9946" height="19.9946" fill="white"/>
</clipPath>
</defs>
</svg>
