<svg width="28" height="28" viewBox="0 0 28 28" fill="none" xmlns="http://www.w3.org/2000/svg">
<path d="M9.32505 25.6437C9.9688 25.6437 10.4907 25.1218 10.4907 24.4781C10.4907 23.8343 9.9688 23.3124 9.32505 23.3124C8.68129 23.3124 8.15942 23.8343 8.15942 24.4781C8.15942 25.1218 8.68129 25.6437 9.32505 25.6437Z" stroke="white" stroke-width="2.33124" stroke-linecap="round" stroke-linejoin="round"/>
<path d="M22.1468 25.6437C22.7906 25.6437 23.3124 25.1218 23.3124 24.4781C23.3124 23.8343 22.7906 23.3124 22.1468 23.3124C21.5031 23.3124 20.9812 23.8343 20.9812 24.4781C20.9812 25.1218 21.5031 25.6437 22.1468 25.6437Z" stroke="white" stroke-width="2.33124" stroke-linecap="round" stroke-linejoin="round"/>
<path d="M2.3894 2.38952H4.72065L7.8212 16.8665C7.93494 17.3967 8.22995 17.8707 8.65545 18.2069C9.08095 18.543 9.61032 18.7203 10.1524 18.7082H21.5522C22.0828 18.7074 22.5972 18.5256 23.0105 18.1928C23.4237 17.8601 23.7111 17.3964 23.8252 16.8782L25.7485 8.21763H5.96786" stroke="white" stroke-width="2.33124" stroke-linecap="round" stroke-linejoin="round"/>
</svg>
