<svg width="28" height="28" viewBox="0 0 28 28" fill="none" xmlns="http://www.w3.org/2000/svg">
<path d="M3.48748 19.0486C3.65887 19.4809 3.69703 19.9547 3.59705 20.4089L2.35566 24.2438C2.31566 24.4383 2.326 24.6397 2.38571 24.8291C2.44541 25.0184 2.55249 25.1894 2.6968 25.3258C2.84111 25.4622 3.01786 25.5594 3.21029 25.6083C3.40273 25.6572 3.60446 25.6562 3.79637 25.6052L7.77464 24.4419C8.20325 24.3569 8.64714 24.3941 9.05566 24.5492C11.5447 25.7116 14.3643 25.9575 17.017 25.2436C19.6697 24.5296 21.985 22.9017 23.5545 20.6471C25.1239 18.3925 25.8466 15.6559 25.595 12.9204C25.3434 10.1848 24.1338 7.62605 22.1795 5.69546C20.2252 3.76487 17.6518 2.58656 14.9134 2.36843C12.1749 2.15029 9.44746 2.90634 7.21216 4.5032C4.97685 6.10005 3.37736 8.43508 2.6959 11.0963C2.01443 13.7575 2.29478 16.5739 3.48748 19.0486Z" stroke="#2B2A83" stroke-width="2.33124" stroke-linecap="round" stroke-linejoin="round"/>
</svg>
