<svg width="24" height="24" viewBox="0 0 24 24" fill="none" xmlns="http://www.w3.org/2000/svg">
<path d="M14.9998 20.9996V12.9996C14.9998 12.7344 14.8944 12.4801 14.7069 12.2925C14.5193 12.105 14.265 11.9996 13.9998 11.9996H9.99976C9.73454 11.9996 9.48019 12.105 9.29265 12.2925C9.10511 12.4801 8.99976 12.7344 8.99976 12.9996V20.9996" stroke="#2B2A83" stroke-width="2.49994" stroke-linecap="round" stroke-linejoin="round"/>
<path d="M3 9.99999C2.99993 9.70906 3.06333 9.42161 3.18579 9.15771C3.30824 8.8938 3.4868 8.65979 3.709 8.47199L10.709 2.47199C11.07 2.1669 11.5274 1.99951 12 1.99951C12.4726 1.99951 12.93 2.1669 13.291 2.47199L20.291 8.47199C20.5132 8.65979 20.6918 8.8938 20.8142 9.15771C20.9367 9.42161 21.0001 9.70906 21 9.99999V19C21 19.5304 20.7893 20.0391 20.4142 20.4142C20.0391 20.7893 19.5304 21 19 21H5C4.46957 21 3.96086 20.7893 3.58579 20.4142C3.21071 20.0391 3 19.5304 3 19V9.99999Z" stroke="#2B2A83" stroke-width="2.49994" stroke-linecap="round" stroke-linejoin="round"/>
</svg>
