<svg width="112" height="112" viewBox="0 0 112 112" fill="none" xmlns="http://www.w3.org/2000/svg">
<path d="M65.3259 44.4963V32.663C65.3259 27.7128 67.2924 22.9654 70.7927 19.4651C74.2929 15.9649 79.0404 13.9984 83.9905 13.9984H90.9897C91.6085 13.9984 92.2019 14.2442 92.6394 14.6818C93.077 15.1193 93.3228 15.7127 93.3228 16.3315V23.3307C93.3228 28.2808 91.3563 33.0283 87.8561 36.5285C84.3558 40.0288 79.6084 41.9953 74.6582 41.9953C69.7081 41.9953 64.9607 43.9617 61.4604 47.462C57.9601 50.9623 55.9937 55.7097 55.9937 60.6598C55.9937 69.9921 60.6598 74.6583 60.6598 83.9905C60.6598 89.0386 59.0225 93.9505 55.9937 97.989" stroke="#2B2A83" stroke-width="6.99921" stroke-linecap="round" stroke-linejoin="round"/>
<path d="M18.6646 41.9953C22.1308 39.3956 26.2525 37.8125 30.5677 37.4234C34.883 37.0343 39.2214 37.8545 43.0968 39.7922C46.9722 41.7299 50.2314 44.7085 52.5093 48.3942C54.7871 52.0799 55.9937 56.3271 55.9937 60.6599C52.5275 63.2595 48.4058 64.8426 44.0905 65.2317C39.7752 65.6208 35.4368 64.8006 31.5615 62.8629C27.6861 60.9252 24.4269 57.9467 22.149 54.261C19.8711 50.5753 18.6646 46.3281 18.6646 41.9953Z" stroke="#2B2A83" stroke-width="6.99921" stroke-linecap="round" stroke-linejoin="round"/>
<path d="M23.3308 97.989H88.6568" stroke="#2B2A83" stroke-width="6.99921" stroke-linecap="round" stroke-linejoin="round"/>
</svg>
