<svg width="24" height="24" viewBox="0 0 24 24" fill="none" xmlns="http://www.w3.org/2000/svg">
<path d="M16 20.9996V18.9996C16 17.9388 15.5786 16.9214 14.8284 16.1712C14.0783 15.4211 13.0609 14.9996 12 14.9996H6C4.93913 14.9996 3.92172 15.4211 3.17157 16.1712C2.42143 16.9214 2 17.9388 2 18.9996V20.9996" stroke="#2B2A83" stroke-width="1.99995" stroke-linecap="round" stroke-linejoin="round"/>
<path d="M15.9995 3.12793C16.8573 3.3503 17.6169 3.85119 18.1592 4.55199C18.7015 5.25279 18.9957 6.11382 18.9957 6.99993C18.9957 7.88604 18.7015 8.74707 18.1592 9.44787C17.6169 10.1487 16.8573 10.6496 15.9995 10.8719" stroke="#2B2A83" stroke-width="1.99995" stroke-linecap="round" stroke-linejoin="round"/>
<path d="M21.9995 20.9996V18.9996C21.9989 18.1134 21.7039 17.2524 21.1609 16.552C20.6179 15.8515 19.8576 15.3512 18.9995 15.1296" stroke="#2B2A83" stroke-width="1.99995" stroke-linecap="round" stroke-linejoin="round"/>
<path d="M9 11C11.2091 11 13 9.20914 13 7C13 4.79086 11.2091 3 9 3C6.79086 3 5 4.79086 5 7C5 9.20914 6.79086 11 9 11Z" stroke="#2B2A83" stroke-width="1.99995" stroke-linecap="round" stroke-linejoin="round"/>
</svg>
