<svg width="24" height="24" viewBox="0 0 24 24" fill="none" xmlns="http://www.w3.org/2000/svg">
<path d="M19 10.9997H5C3.89543 10.9997 3 11.8952 3 12.9997V19.9997C3 21.1043 3.89543 21.9997 5 21.9997H19C20.1046 21.9997 21 21.1043 21 19.9997V12.9997C21 11.8952 20.1046 10.9997 19 10.9997Z" stroke="#99A1AF" stroke-width="1.99995" stroke-linecap="round" stroke-linejoin="round"/>
<path d="M7 11V7C7 5.67392 7.52678 4.40215 8.46447 3.46447C9.40215 2.52678 10.6739 2 12 2C13.3261 2 14.5979 2.52678 15.5355 3.46447C16.4732 4.40215 17 5.67392 17 7V11" stroke="#99A1AF" stroke-width="1.99995" stroke-linecap="round" stroke-linejoin="round"/>
</svg>
