<svg width="20" height="20" viewBox="0 0 20 20" fill="none" xmlns="http://www.w3.org/2000/svg">
<path d="M16.6623 10.8303C16.6623 14.9959 13.7464 17.0787 10.2806 18.2867C10.0992 18.3482 9.90203 18.3452 9.72247 18.2783C6.2484 17.0787 3.33252 14.9959 3.33252 10.8303V4.99858C3.33252 4.77763 3.42029 4.56572 3.57653 4.40949C3.73277 4.25325 3.94467 4.16547 4.16563 4.16547C5.83185 4.16547 7.91462 3.16574 9.36423 1.89942C9.54073 1.74862 9.76525 1.66577 9.99739 1.66577C10.2295 1.66577 10.4541 1.74862 10.6306 1.89942C12.0885 3.17407 14.1629 4.16547 15.8292 4.16547C16.0501 4.16547 16.262 4.25325 16.4183 4.40949C16.5745 4.56572 16.6623 4.77763 16.6623 4.99858V10.8303Z" stroke="#2B2A83" stroke-width="1.66622" stroke-linecap="round" stroke-linejoin="round"/>
</svg>
