<svg width="24" height="24" viewBox="0 0 24 24" fill="none" xmlns="http://www.w3.org/2000/svg">
<path d="M4.095 20.0549L7.266 18.9974L7.821 19.2749C9.096 19.9109 10.5135 20.2499 12 20.2499C16.965 20.2499 21 16.3409 21 11.9999C21 7.65894 16.965 3.74994 12 3.74994C7.035 3.74994 3 7.65894 3 11.9999C3 13.6199 3.585 15.2639 4.6605 16.6694L5.178 17.3444L4.0935 20.0534L4.095 20.0549ZM3.0345 21.9899C2.89876 22.0354 2.75284 22.0411 2.61397 22.0063C2.47511 21.9715 2.3491 21.8977 2.25084 21.7936C2.15257 21.6895 2.08615 21.5595 2.05942 21.4188C2.03269 21.2782 2.04677 21.1328 2.1 20.9999L3.468 17.5799C2.22 15.9449 1.5 13.9889 1.5 11.9999C1.5 7.02894 6 2.24994 12 2.24994C18 2.24994 22.5 7.02894 22.5 11.9999C22.5 16.9709 18 21.7499 12 21.7499C10.3173 21.7547 8.65666 21.3664 7.1505 20.6159L3.0345 21.9884V21.9899Z" fill="#2B2A83"/>
<path d="M12.0001 13.2C11.8425 13.2 11.6864 13.1689 11.5408 13.1086C11.3952 13.0483 11.263 12.9599 11.1515 12.8485C11.0401 12.7371 10.9517 12.6048 10.8914 12.4592C10.8311 12.3136 10.8 12.1576 10.8 12C10.8 11.8424 10.8311 11.6864 10.8914 11.5408C10.9517 11.3952 11.0401 11.2629 11.1515 11.1515C11.263 11.04 11.3952 10.9516 11.5408 10.8913C11.6864 10.831 11.8425 10.8 12.0001 10.8C12.3183 10.8 12.6235 10.9264 12.8486 11.1515C13.0736 11.3765 13.2001 11.6817 13.2001 12C13.2001 12.3182 13.0736 12.6235 12.8486 12.8485C12.6235 13.0736 12.3183 13.2 12.0001 13.2ZM16.5001 13.2C16.3425 13.2 16.1864 13.1689 16.0408 13.1086C15.8952 13.0483 15.763 12.9599 15.6515 12.8485C15.5401 12.7371 15.4517 12.6048 15.3914 12.4592C15.3311 12.3136 15.3001 12.1576 15.3001 12C15.3001 11.8424 15.3311 11.6864 15.3914 11.5408C15.4517 11.3952 15.5401 11.2629 15.6515 11.1515C15.763 11.04 15.8952 10.9516 16.0408 10.8913C16.1864 10.831 16.3425 10.8 16.5001 10.8C16.8183 10.8 17.1235 10.9264 17.3486 11.1515C17.5736 11.3765 17.7001 11.6817 17.7001 12C17.7001 12.3182 17.5736 12.6235 17.3486 12.8485C17.1235 13.0736 16.8183 13.2 16.5001 13.2ZM7.50005 13.2C7.34246 13.2 7.18642 13.1689 7.04083 13.1086C6.89524 13.0483 6.76295 12.9599 6.65152 12.8485C6.54009 12.7371 6.4517 12.6048 6.39139 12.4592C6.33109 12.3136 6.30005 12.1576 6.30005 12C6.30005 11.8424 6.33109 11.6864 6.39139 11.5408C6.4517 11.3952 6.54009 11.2629 6.65152 11.1515C6.76295 11.04 6.89524 10.9516 7.04083 10.8913C7.18642 10.831 7.34246 10.8 7.50005 10.8C7.81831 10.8 8.12353 10.9264 8.34858 11.1515C8.57362 11.3765 8.70005 11.6817 8.70005 12C8.70005 12.3182 8.57362 12.6235 8.34858 12.8485C8.12353 13.0736 7.81831 13.2 7.50005 13.2Z" fill="#2B2A83"/>
</svg>
