<svg width="22" height="22" viewBox="0 0 22 22" fill="none" xmlns="http://www.w3.org/2000/svg">
<path d="M10.0833 0.5H19.8918C19.9116 0.504069 19.9356 0.509488 19.9631 0.511719L20.0032 0.515625L20.0442 0.511719C20.8341 0.448015 21.5 1.06269 21.5002 1.83301V18.333C21.5002 18.9011 21.1393 19.4099 20.5999 19.5986L15.0911 21.4346C14.9399 21.4804 14.8066 21.5 14.6663 21.5C13.9316 21.4999 13.3335 20.9018 13.3333 20.167V18.75H10.0833C8.84324 18.75 7.83325 17.74 7.83325 16.5V14.667L7.84204 14.583C7.88085 14.3932 8.04905 14.25 8.25024 14.25C8.47993 14.2502 8.66626 14.4373 8.66626 14.667V16.5C8.66626 17.2813 9.30195 17.917 10.0833 17.917H13.3333V3.66699C13.3333 3.09875 13.6941 2.58993 14.2327 2.40137L14.5129 2.30762L14.3538 1.33301H10.0833C9.30195 1.33301 8.66626 1.96875 8.66626 2.75V3.66699C8.66605 3.89672 8.47974 4.0828 8.25024 4.08301C8.02058 4.08301 7.83346 3.89685 7.83325 3.66699V2.75C7.83325 1.50998 8.84324 0.5 10.0833 0.5Z" fill="#B81212" stroke="black"/>
<path d="M5.34082 5.11536C5.49636 5.05098 5.6755 5.08578 5.79492 5.2052L9.46094 8.87219C9.60385 9.0151 9.62175 9.23391 9.51465 9.39563L9.46094 9.46106L5.79492 13.1281C5.67557 13.2474 5.49572 13.2824 5.33984 13.2179H5.33887C5.18423 13.1527 5.08301 13.0004 5.08301 12.8331V9.58313H0.916992C0.687304 9.58313 0.5 9.39611 0.5 9.16614C0.500239 8.93659 0.687392 8.75012 0.916992 8.75012H5.08301V5.50012C5.08301 5.33205 5.18539 5.17893 5.34082 5.11438V5.11536Z" fill="#B81212" stroke="black"/>
</svg>
